<svg version="1.1" viewBox="0.0 0.0 500.0 500.0" fill="none" stroke="none" stroke-linecap="square" stroke-miterlimit="10" xmlns:xlink="http://www.w3.org/1999/xlink" xmlns="http://www.w3.org/2000/svg">
	<clipPath id="p.0">
		<path d="m0 0l500.0 0l0 500.0l-500.0 0l0 -500.0z" clip-rule="nonzero"/>
	</clipPath>
	<g clip-path="url(#p.0)">
		<path fill="#000000" fill-opacity="0.0" d="m0 0l500.0 0l0 500.0l-500.0 0z" fill-rule="evenodd"/>
		<path fill="#000000" fill-opacity="0.0"
					d="m50.99538 110.36155l0 0c0 -32.37462 26.244808 -58.619427 58.619427 -58.619427l7.6850357 0l0 0l99.45669 0l173.4462 0c15.5468445 0 30.45691 6.1759567 41.450195 17.169231c10.993286 10.993271 17.16922 25.90335 17.16922 41.450195l0 146.54855l0 0l0 87.92914l0 0c0 32.374603 -26.244812 58.619415 -58.619415 58.619415l-173.4462 0l-49.72702 43.96457l-49.729668 -43.96457l-7.6850357 0l0 0c-32.37462 0 -58.619427 -26.244812 -58.619427 -58.619415l0 0l0 -87.92914l0 0z" fill-rule="evenodd"/>
		<path stroke="#000000" stroke-width="24.0" stroke-linejoin="round" stroke-linecap="butt"
					d="m50.99538 110.36155l0 0c0 -32.37462 26.244808 -58.619427 58.619427 -58.619427l7.6850357 0l0 0l99.45669 0l173.4462 0c15.5468445 0 30.45691 6.1759567 41.450195 17.169231c10.993286 10.993271 17.16922 25.90335 17.16922 41.450195l0 146.54855l0 0l0 87.92914l0 0c0 32.374603 -26.244812 58.619415 -58.619415 58.619415l-173.4462 0l-49.72702 43.96457l-49.729668 -43.96457l-7.6850357 0l0 0c-32.37462 0 -58.619427 -26.244812 -58.619427 -58.619415l0 0l0 -87.92914l0 0z" fill-rule="evenodd"/>
	</g>
</svg>