<svg version="1.1" viewBox="0.0 0.0 280.0 280.0" fill="none" stroke="none" stroke-linecap="square" stroke-miterlimit="10" xmlns:xlink="http://www.w3.org/1999/xlink" xmlns="http://www.w3.org/2000/svg"><clipPath id="p.0"><path d="m0 0l280.0 0l0 280.0l-280.0 0l0 -280.0z" clip-rule="nonzero"/></clipPath><g clip-path="url(#p.0)"><path fill="#000000" fill-opacity="0.0" d="m0 0l280.0 0l0 280.0l-280.0 0z" fill-rule="evenodd"/><path fill="#000000" fill-opacity="0.0" d="m-226.00305 21.902569l733.41736 0l0 209.25984l-733.41736 0z" fill-rule="evenodd"/><path fill="#000000" d="m132.84036 177.345l0 -40.921875q-19.140633 -5.46875 -28.078133 -16.546883q-8.921875 -11.09375 -8.921875 -26.90625q0 -16.015625 10.09375 -26.90625q10.109375 -10.890621 26.906258 -12.546871l0 -9.671875l14.171875 0l0 9.671875q15.515625 1.84375 24.6875 10.593746q9.1875 8.734375 11.734375 23.390625l-24.703125 3.21875q-2.25 -11.53125 -11.71875 -15.625l0 38.1875q23.4375 6.34375 31.921875 16.453133q8.5 10.109375 8.5 25.921875q0 17.671875 -10.703125 29.78125q-10.6875 12.109375 -29.71875 14.859375l0 18.25l-14.171875 0l0 -17.765625q-16.890633 -2.046875 -27.437508 -12.59375q-10.546875 -10.5625 -13.46875 -29.796875l25.484375 -2.734375q1.5625 7.8125 5.859375 13.484375q4.296875 5.65625 9.562508 8.203125zm0 -102.54688q-5.7500076 1.953125 -9.171883 6.640625q-3.421875 4.6875 -3.421875 10.359375q0 5.171875 3.125 9.625q3.125 4.4375 9.468758 7.171875l0 -33.796875zm14.171875 103.90626q7.3125 -1.359375 11.90625 -6.78125q4.59375 -5.421875 4.59375 -12.75q0 -6.546875 -3.859375 -11.28125q-3.859375 -4.734375 -12.640625 -7.265625l0 38.078125z" fill-rule="nonzero"/><path fill="#000000" fill-opacity="0.0" d="m142.01884 0.4874819l0 279.40158" fill-rule="evenodd"/><path stroke="#000000" stroke-width="12.0" stroke-linejoin="round" stroke-linecap="butt" d="m142.01884 45.96748l0 161.92159" fill-rule="evenodd"/><path stroke="#000000" stroke-width="12.0" stroke-linecap="butt" d="m142.01884 6.487482c10.9021 0 19.740005 8.837898 19.740005 19.74c0 10.9021 -8.837906 19.739998 -19.740005 19.739998c-10.9021 0 -19.739998 -8.837898 -19.739998 -19.739998c0 -10.9021015 8.837898 -19.74 19.739998 -19.74z" fill-rule="nonzero"/><path fill="#000000" stroke="#000000" stroke-width="12.0" stroke-linecap="butt" d="m122.19805 207.88907l19.820793 54.457184l19.820786 -54.457184z" fill-rule="evenodd"/></g></svg>