<?xml version="1.0" encoding="utf-8"?>
<svg viewBox="0 0 287 88" width="287" height="88" xmlns="http://www.w3.org/2000/svg">
  <g style="" transform="matrix(0.337977, 0, 0, 0.343432, 105.81871, 18.847309)">
    <path d="M -121.912 114.942 L -69.232 29.862 L -44.322 29.862 L -34.862 114.942 L -55.572 114.942 L -57.592 92.522 L -88.662 92.522 L -101.722 114.942 L -121.912 114.942 Z M -80.672 78.892 L -58.642 78.892 L -61.422 46.902 L -61.942 46.902 L -80.672 78.892 ZM -31.233 114.942 L -10.023 29.862 L 24.067 29.862 C 32.367 29.862 38.801 30.429 43.367 31.562 C 47.934 32.695 50.977 34.685 52.497 37.532 C 54.017 40.372 54.147 44.325 52.887 49.392 L 48.867 65.522 C 47.474 71.115 45.181 75.485 41.987 78.632 C 38.801 81.772 34.444 83.999 28.917 85.312 C 23.391 86.625 16.214 87.282 7.387 87.282 L -3.883 87.282 L -10.783 114.942 L -31.233 114.942 Z M -0.393 73.252 L 12.587 73.252 C 17.921 73.252 21.837 72.619 24.337 71.352 C 26.837 70.085 28.471 67.922 29.237 64.862 L 32.637 51.232 C 33.331 48.432 32.737 46.595 30.857 45.722 C 29.064 44.849 25.284 44.412 19.517 44.412 L 6.797 44.412 L -0.393 73.252 ZM 45.153 114.942 L 66.363 29.862 L 131.263 29.862 L 127.633 44.412 L 83.183 44.412 L 78.313 63.942 L 118.433 63.942 L 114.803 78.492 L 74.693 78.492 L 69.233 100.392 L 114.983 100.392 L 111.353 114.942 L 45.153 114.942 ZM 119.31 114.942 L 140.52 29.862 L 178.8 29.862 C 190.16 29.862 198.033 31.239 202.42 33.992 C 206.8 36.745 208.183 41.355 206.57 47.822 L 202.85 62.762 C 201.61 67.742 198.863 71.655 194.61 74.502 C 190.363 77.342 185.213 79.155 179.16 79.942 L 195.08 114.942 L 171.48 114.942 L 157.53 81.512 L 148.09 81.512 L 139.76 114.942 L 119.31 114.942 Z M 151.46 68.012 L 169.03 68.012 C 173.837 68.012 177.27 67.379 179.33 66.112 C 181.397 64.839 182.887 62.369 183.8 58.702 L 185.31 52.672 C 186.09 49.525 185.69 47.362 184.11 46.182 C 182.523 45.002 179.457 44.412 174.91 44.412 L 157.34 44.412 L 151.46 68.012 ZM 220.729 114.942 L 238.319 44.412 L 212.099 44.412 L 215.729 29.862 L 288.489 29.862 L 284.859 44.412 L 258.769 44.412 L 241.179 114.942 L 220.729 114.942 ZM 309.51 116.252 C 284.95 116.252 274.717 108.035 278.81 91.602 L 294.21 29.862 L 314.66 29.862 L 299.26 91.602 C 298.307 95.449 298.894 98.095 301.02 99.542 C 303.154 100.982 307.28 101.702 313.4 101.702 C 319.427 101.702 323.824 100.982 326.59 99.542 C 329.35 98.095 331.21 95.449 332.17 91.602 L 347.57 29.862 L 368.02 29.862 L 352.62 91.602 C 348.527 108.035 334.157 116.252 309.51 116.252 ZM 359.083 114.942 L 380.293 29.862 L 418.573 29.862 C 429.933 29.862 437.806 31.239 442.193 33.992 C 446.573 36.745 447.956 41.355 446.343 47.822 L 442.623 62.762 C 441.383 67.742 438.636 71.655 434.383 74.502 C 430.136 77.342 424.986 79.155 418.933 79.942 L 434.853 114.942 L 411.253 114.942 L 397.303 81.512 L 387.863 81.512 L 379.533 114.942 L 359.083 114.942 Z M 391.233 68.012 L 408.803 68.012 C 413.61 68.012 417.043 67.379 419.103 66.112 C 421.17 64.839 422.66 62.369 423.573 58.702 L 425.083 52.672 C 425.863 49.525 425.463 47.362 423.883 46.182 C 422.296 45.002 419.23 44.412 414.683 44.412 L 397.113 44.412 L 391.233 68.012 ZM 440.843 114.942 L 462.053 29.862 L 526.953 29.862 L 523.323 44.412 L 478.873 44.412 L 474.003 63.942 L 514.123 63.942 L 510.493 78.492 L 470.383 78.492 L 464.923 100.392 L 510.673 100.392 L 507.043 114.942 L 440.843 114.942 Z" transform="matrix(1, 0, 0, 1, 0, 0)" style="fill: rgb(25, 41, 59); line-height: 163.201px; white-space: pre;"/>
    <path d="M -48.58 144.917 L -48.58 125.447 L -45.67 125.447 L -45.67 142.877 L -36.1 142.877 L -36.1 144.917 L -48.58 144.917 ZM -3.056 144.917 L 4.684 125.447 L 8.044 125.447 L 15.604 144.917 L 12.574 144.917 L 10.354 139.007 L 2.014 139.007 L -0.176 144.917 L -3.056 144.917 Z M 2.764 136.997 L 9.634 136.997 L 6.334 128.207 L 6.064 128.207 L 2.764 136.997 ZM 50.567 144.917 L 50.567 125.447 L 57.527 125.447 C 59.187 125.447 60.507 125.617 61.487 125.957 C 62.387 126.277 62.99 126.677 63.297 127.157 C 63.61 127.637 63.767 128.297 63.767 129.137 L 63.767 131.747 C 63.767 132.527 63.547 133.13 63.107 133.557 C 62.667 133.99 61.997 134.307 61.097 134.507 L 61.097 134.627 C 62.157 134.807 63.013 135.17 63.667 135.717 C 64.313 136.27 64.637 136.957 64.637 137.777 L 64.637 141.047 C 64.637 142.467 64.107 143.467 63.047 144.047 C 61.987 144.627 60.217 144.917 57.737 144.917 L 50.567 144.917 Z M 53.477 133.967 L 57.617 133.967 C 58.837 133.967 59.713 133.784 60.247 133.417 C 60.773 133.044 61.037 132.457 61.037 131.657 L 61.037 129.377 C 61.037 128.637 60.767 128.117 60.227 127.817 C 59.687 127.517 58.787 127.367 57.527 127.367 L 53.477 127.367 L 53.477 133.967 Z M 53.477 142.907 L 57.737 142.907 C 59.197 142.907 60.227 142.757 60.827 142.457 C 61.427 142.157 61.727 141.647 61.727 140.927 L 61.727 137.987 C 61.727 137.467 61.623 137.054 61.417 136.747 C 61.203 136.434 60.877 136.207 60.437 136.067 C 59.997 135.947 59.607 135.874 59.267 135.847 C 58.927 135.814 58.417 135.797 57.737 135.797 L 53.477 135.797 L 53.477 142.907 ZM 108.57 145.217 C 103.13 145.217 100.41 143.457 100.41 139.937 L 100.41 130.727 C 100.41 127.007 103.13 125.147 108.57 125.147 C 114.07 125.147 116.82 126.997 116.82 130.697 L 116.82 139.937 C 116.82 141.817 116.06 143.167 114.54 143.987 C 113.02 144.807 111.03 145.217 108.57 145.217 Z M 108.63 143.267 C 112.21 143.267 114 142.147 114 139.907 L 114 130.637 C 114 128.237 112.2 127.037 108.6 127.037 C 106.86 127.037 105.526 127.307 104.6 127.847 C 103.666 128.387 103.2 129.317 103.2 130.637 L 103.2 139.907 C 103.2 142.147 105.01 143.267 108.63 143.267 ZM 153.312 144.917 L 153.312 125.447 L 160.152 125.447 C 161.872 125.447 163.215 125.554 164.182 125.767 C 165.155 125.974 165.865 126.347 166.312 126.887 C 166.765 127.427 166.992 128.217 166.992 129.257 L 166.992 132.617 C 166.992 133.777 166.515 134.67 165.562 135.297 C 164.615 135.93 163.412 136.247 161.952 136.247 L 168.192 144.917 L 164.622 144.917 L 159.042 136.607 L 156.222 136.607 L 156.222 144.917 L 153.312 144.917 Z M 156.222 134.687 L 160.032 134.687 C 161.472 134.687 162.505 134.514 163.132 134.167 C 163.765 133.814 164.082 133.177 164.082 132.257 L 164.082 129.557 C 164.082 128.097 162.822 127.367 160.302 127.367 L 156.222 127.367 L 156.222 134.687 ZM 202.194 144.917 L 209.934 125.447 L 213.294 125.447 L 220.854 144.917 L 217.824 144.917 L 215.604 139.007 L 207.264 139.007 L 205.074 144.917 L 202.194 144.917 Z M 208.014 136.997 L 214.884 136.997 L 211.584 128.207 L 211.314 128.207 L 208.014 136.997 ZM 260.616 144.917 L 260.616 127.487 L 254.016 127.487 L 254.016 125.447 L 270.126 125.447 L 270.126 127.487 L 263.556 127.487 L 263.556 144.917 L 260.616 144.917 ZM 312.98 145.217 C 307.54 145.217 304.82 143.457 304.82 139.937 L 304.82 130.727 C 304.82 127.007 307.54 125.147 312.98 125.147 C 318.48 125.147 321.23 126.997 321.23 130.697 L 321.23 139.937 C 321.23 141.817 320.47 143.167 318.95 143.987 C 317.43 144.807 315.44 145.217 312.98 145.217 Z M 313.04 143.267 C 316.62 143.267 318.41 142.147 318.41 139.907 L 318.41 130.637 C 318.41 128.237 316.61 127.037 313.01 127.037 C 311.27 127.037 309.936 127.307 309.01 127.847 C 308.076 128.387 307.61 129.317 307.61 130.637 L 307.61 139.907 C 307.61 142.147 309.42 143.267 313.04 143.267 ZM 357.722 144.917 L 357.722 125.447 L 364.562 125.447 C 366.282 125.447 367.625 125.554 368.592 125.767 C 369.565 125.974 370.275 126.347 370.722 126.887 C 371.175 127.427 371.402 128.217 371.402 129.257 L 371.402 132.617 C 371.402 133.777 370.925 134.67 369.972 135.297 C 369.025 135.93 367.822 136.247 366.362 136.247 L 372.602 144.917 L 369.032 144.917 L 363.452 136.607 L 360.632 136.607 L 360.632 144.917 L 357.722 144.917 Z M 360.632 134.687 L 364.442 134.687 C 365.882 134.687 366.915 134.514 367.542 134.167 C 368.175 133.814 368.492 133.177 368.492 132.257 L 368.492 129.557 C 368.492 128.097 367.232 127.367 364.712 127.367 L 360.632 127.367 L 360.632 134.687 ZM 408.674 144.917 L 408.674 125.447 L 411.584 125.447 L 411.584 144.917 L 408.674 144.917 ZM 448.621 144.917 L 448.621 125.447 L 461.701 125.447 L 461.701 127.487 L 451.531 127.487 L 451.531 133.847 L 460.711 133.847 L 460.711 135.887 L 451.531 135.887 L 451.531 142.877 L 462.001 142.877 L 462.001 144.917 L 448.621 144.917 ZM 503.624 145.217 C 501.964 145.217 499.984 145.057 497.684 144.737 L 497.684 142.307 C 500.004 142.807 502.044 143.057 503.804 143.057 C 505.284 143.057 506.364 142.894 507.044 142.567 C 507.724 142.234 508.064 141.617 508.064 140.717 L 508.064 138.197 C 508.064 137.357 507.824 136.767 507.344 136.427 C 506.864 136.087 506.024 135.917 504.824 135.917 L 502.544 135.917 C 500.644 135.917 499.294 135.537 498.494 134.777 C 497.694 134.017 497.294 132.837 497.294 131.237 L 497.294 129.677 C 497.294 128.617 497.528 127.757 497.994 127.097 C 498.468 126.437 499.261 125.947 500.374 125.627 C 501.481 125.307 503.004 125.147 504.944 125.147 C 506.244 125.147 507.914 125.257 509.954 125.477 L 509.954 127.667 C 507.674 127.327 505.934 127.157 504.734 127.157 C 502.874 127.157 501.644 127.337 501.044 127.697 C 500.424 128.077 500.114 128.707 500.114 129.587 L 500.114 131.807 C 500.114 132.487 500.358 132.98 500.844 133.287 C 501.338 133.6 502.184 133.757 503.384 133.757 L 505.724 133.757 C 507.064 133.757 508.111 133.917 508.864 134.237 C 509.611 134.557 510.141 135.044 510.454 135.697 C 510.761 136.344 510.914 137.217 510.914 138.317 L 510.914 139.727 C 510.914 141.107 510.658 142.197 510.144 142.997 C 509.638 143.797 508.854 144.367 507.794 144.707 C 506.734 145.047 505.344 145.217 503.624 145.217 Z" transform="matrix(1.013893961906433, 0, 0, 1.0004730224609375, -3.894676923751831, -0.05795200541615486)" style="fill: rgb(51, 51, 51); white-space: pre;"/>
    <path d="M -228.469 -8.476 L -177.449 26.612 L -278.656 46.123 L -277.156 41.235 L -273.727 34.61 L -269.186 27.2 L -264.244 20.578 L -258.409 13.877 L -251.68 7.048 L -244.889 1.579 L -236.831 -3.911 L -228.31 -8.476" style="fill: rgb(25, 41, 59); stroke: rgb(0, 133, 145); stroke-width: 1.95787px; stroke-opacity: 0;" transform="matrix(0.998057, -0.061323, 0.063318, 0.998057, -1.635056, -13.948279)"/>
    <path d="M -164.851 -28.631 L -113.296 6.437 L -214.281 25.937 L -212.85 21.051 L -209.515 14.429 L -205.077 7.025 L -200.227 0.406 L -194.485 -6.292 L -187.851 -13.117 L -181.134 -18.582 L -173.151 -24.069 L -164.692 -28.631" style="fill: rgb(25, 41, 59); stroke: rgb(0, 133, 145); stroke-width: 1.95788px; stroke-opacity: 0;" transform="matrix(0.742881, 0.658791, -0.680228, 0.742881, -43.029461, 107.556039)"/>
    <path d="M -107.023 3.148 L -55.15 37.97 L -156.878 57.332 L -155.43 52.481 L -152.063 45.906 L -147.584 38.553 L -142.69 31.982 L -136.898 25.331 L -130.208 18.554 L -123.435 13.127 L -115.388 7.678 L -106.863 3.148" style="fill: rgb(25, 41, 59); stroke: rgb(0, 133, 145); stroke-width: 1.95787px; stroke-opacity: 0;" transform="matrix(0.049777, 0.982896, -1.01488, 0.049777, -70.046973, 132.935521)"/>
    <path d="M -88.091 65.068 L -36.74 99.908 L -138.686 119.281 L -137.17 114.427 L -133.711 107.849 L -129.131 100.492 L -124.147 93.917 L -118.264 87.263 L -111.481 80.482 L -104.636 75.052 L -96.516 69.601 L -87.932 65.068" style="stroke: rgb(0, 133, 145); stroke-width: 1.95787px; stroke-opacity: 0; fill: none;" transform="matrix(-0.657423, 0.741553, -0.765684, -0.657423, -74.801072, 217.815979)"/>
    <path d="M -118.872 122.843 L -67.851 157.931 L -169.058 177.442 L -167.558 172.553 L -164.129 165.928 L -159.588 158.519 L -154.646 151.897 L -148.811 145.195 L -142.082 138.366 L -135.291 132.897 L -127.233 127.407 L -118.713 122.843" style="fill: rgb(25, 41, 59); stroke: rgb(0, 133, 145); stroke-width: 1.95787px; stroke-opacity: 0;" transform="matrix(-0.998057, 0.061323, -0.063318, -0.998057, -227.172006, 307.257211)"/>
    <path d="M -183.277 143.029 L -131.722 178.097 L -232.707 197.597 L -231.276 192.711 L -227.941 186.09 L -223.503 178.685 L -218.653 172.067 L -212.911 165.369 L -206.277 158.544 L -199.56 153.078 L -191.577 147.592 L -183.118 143.029" style="fill: rgb(25, 41, 59); stroke: rgb(0, 133, 145); stroke-width: 1.95788px; stroke-opacity: 0;" transform="matrix(-0.742881, -0.658791, 0.680228, -0.742881, -433.42988, 176.793978)"/>
    <path d="M -241.043 111.634 L -189.171 146.455 L -290.898 165.818 L -289.45 160.966 L -286.083 154.391 L -281.603 147.039 L -276.71 140.467 L -270.918 133.816 L -264.228 127.039 L -257.456 121.612 L -249.408 116.164 L -240.883 111.634" style="fill: rgb(25, 41, 59); stroke: rgb(0, 133, 145); stroke-width: 1.95787px; stroke-opacity: 0;" transform="matrix(-0.049777, -0.982896, 1.01488, -0.049777, -392.772979, -90.297688)"/>
    <path d="M -259.207 49.685 L -207.856 84.525 L -309.802 103.898 L -308.286 99.044 L -304.827 92.466 L -300.247 85.109 L -295.263 78.534 L -289.38 71.879 L -282.597 65.099 L -275.752 59.668 L -267.632 54.217 L -259.047 49.685" style="fill: rgb(25, 41, 59); stroke: rgb(0, 133, 145); stroke-width: 1.95787px; stroke-opacity: 0;" transform="matrix(0.657423, -0.741553, 0.765684, 0.657423, -147.466807, -165.628392)"/>
  </g>
</svg>