<svg width="1500" height="1500" xmlns="http://www.w3.org/2000/svg">
 <!-- Created with Method Draw - http://github.com/duopixel/Method-Draw/ -->
 <g>
  <title>background</title>
  <rect fill="none" id="canvas_background" height="1502" width="1502" y="-1" x="-1"/>
 </g>
 <g>
  <title>Layer 1</title>
  <path transform="rotate(-90.2091293334961 696.1563110351561,356.7028503417968) " id="svg_16" d="m1016.12582,962.71277l0,-681.7613l0,0c0,-292.85384 -125.34824,-530.25884 -279.97315,-530.25884l0,0l0,0c-74.25348,0 -145.46574,55.86641 -197.97094,155.30922c-52.50516,99.44281 -82.00219,234.31622 -82.00219,374.94962l0,75.75127l-79.99226,0l159.98455,303.00516l159.9847,-303.00516l-79.99233,0l0,-75.75127c0,-125.50877 53.7207,-227.25373 119.98845,-227.25373l0,0l0,0c66.26784,0 119.98849,101.74496 119.98849,227.25373l0,681.7613l159.98468,0z" stroke-width="1.5" fill="#000000"/>
  <path transform="rotate(-90.2091293334961 696.1563110351561,756.7028198242186) " id="svg_21" d="m1016.12582,1362.71118l0,-681.7613l0,0c0,-292.85383 -125.34824,-530.25884 -279.97315,-530.25884l0,0l0,0c-74.25348,0 -145.46574,55.86641 -197.97095,155.30922c-52.50516,99.44281 -82.00218,234.31622 -82.00218,374.94962l0,75.75127l-79.99227,0l159.98455,303.00516l159.9847,-303.00516l-79.99232,0l0,-75.75127c0,-125.50877 53.7207,-227.25372 119.98845,-227.25372l0,0l0,0c66.26783,0 119.98849,101.74495 119.98849,227.25372l0,681.7613l159.98468,0z" stroke-width="1.5" fill="#000000"/>
  <path transform="rotate(-90.2091293334961 696.1563110351564,1156.7027587890625) " id="svg_22" d="m1016.12582,1762.70958l0,-681.7613l0,0c0,-292.85383 -125.34824,-530.25884 -279.97315,-530.25884l0,0l0,0c-74.25348,0 -145.46574,55.86641 -197.97095,155.30922c-52.50516,99.44281 -82.00218,234.31622 -82.00218,374.94962l0,75.75127l-79.99227,0l159.98455,303.00516l159.9847,-303.00516l-79.99232,0l0,-75.75127c0,-125.50877 53.7207,-227.25372 119.98845,-227.25372l0,0l0,0c66.26783,0 119.98849,101.74495 119.98849,227.25372l0,681.7613l159.98468,0z" stroke-width="1.5" fill="#000000"/>
  <path id="svg_24" d="m1141.31383,73.4202l38.79171,-38.79171l41.20784,41.2075l41.20784,-41.2075l38.79208,38.79171l-41.20785,41.20784l41.20785,41.20784l-38.79208,38.79208l-41.20784,-41.20785l-41.20784,41.20785l-38.79171,-38.79208l41.2075,-41.20784l-41.2075,-41.20784z" stroke-width="1.5" fill="#ffffff"/>
  <path id="svg_25" d="m1141.31383,475.41859l38.79172,-38.79172l41.20783,41.2075l41.20784,-41.2075l38.79208,38.79172l-41.20785,41.20783l41.20785,41.20784l-38.79208,38.79208l-41.20784,-41.20785l-41.20783,41.20785l-38.79172,-38.79208l41.2075,-41.20784l-41.2075,-41.20783z" stroke-width="1.5" fill="#ffffff"/>
  <path id="svg_26" d="m1141.31383,873.417l38.79172,-38.79172l41.20783,41.2075l41.20784,-41.2075l38.79208,38.79172l-41.20785,41.20783l41.20785,41.20784l-38.79208,38.79208l-41.20784,-41.20785l-41.20783,41.20785l-38.79172,-38.79208l41.2075,-41.20784l-41.2075,-41.20783z" stroke-width="1.5" fill="#ffffff"/>
 </g>
</svg>