<?xml version="1.0" encoding="utf-8"?>
<svg xmlns:bx="https://boxy-svg.com" viewBox="0 0 500 500" xmlns="http://www.w3.org/2000/svg">
	<path d="M 355 134.393 L 529.621 261.262 L 462.921 466.541 L 247.079 466.541 L 180.379 261.262 Z" style="" transform="matrix(0.809017, -0.587785, 0.587785, 0.809017, -223.223008, 188.115939)" bx:shape="n-gon 355 318 183.607 183.607 5 0 1@570958c9"/>
	<path d="M -254.319 -219.271 L -139.986 -21.238 L -368.653 -21.238 L -254.319 -219.271 Z" style="" transform="matrix(-1, 0, 0, -1, 0, 0)" bx:shape="triangle -368.653 -219.271 228.667 198.033 0.5 0 1@bd017910"/>
	<path d="M -309.771 -439.815 L -195.438 -241.782 L -424.105 -241.782 L -309.771 -439.815 Z" style="" transform="matrix(-0.914895, -0.403693, 0.403693, -0.914894, 183.547405, -47.759735)" bx:shape="triangle -424.105 -439.815 228.667 198.033 0.5 0 1@82e213a4"/>
	<path d="M 538.439 439.816 L 652.772 637.849 L 424.105 637.849 L 538.439 439.816 Z" style="" transform="matrix(0.914894, -0.403693, -0.403693, -0.914894, -101.823727, 1099.261836)" bx:shape="triangle 424.105 439.816 228.667 198.033 0.5 0 1@399a409a"/>
	<path d="M -309.771 -439.816 L -195.438 -241.783 L -424.105 -241.783 L -309.771 -439.816 Z" style="" transform="matrix(-0.331007, -0.943628, 0.943629, -0.331006, 584.660837, -202.311575)" bx:shape="triangle -424.105 -439.816 228.667 198.033 0.5 0 1@d3bc41d5"/>
	<path d="M 538.439 439.816 L 652.772 637.849 L 424.105 637.849 L 538.439 439.816 Z" style="" transform="matrix(0.331007, -0.943628, -0.943629, -0.331006, 463.353257, 887.490317)" bx:shape="triangle 424.105 439.816 228.667 198.033 0.5 0 1@399a409a"/>
</svg>