<?xml version="1.0" encoding="utf-8"?>
<svg viewBox="0 0 47 50" width="47" height="50" xmlns="http://www.w3.org/2000/svg">
  <path id="path1747" d="M 30.732 4.81 L 30.732 12.632 C 36.793 15.841 40.238 22.582 39.03 29.526 C 37.68 37.289 30.967 42.862 23.088 42.791 C 15.209 42.721 8.595 36.985 7.384 29.199 C 6.314 22.32 9.76 15.69 15.742 12.543 L 15.742 4.84 C 7.822 7.556 2.135 14.243 0.514 22.091 C -0.033 24.738 -0.1 27.502 0.335 30.3 C 2.075 41.49 11.705 49.858 23.029 49.959 C 34.353 50.061 44.138 41.873 46.079 30.716 C 48.02 19.559 41.544 8.568 30.851 4.84 C 30.811 4.826 30.773 4.823 30.732 4.81 L 30.732 4.81 Z" style="stroke-linejoin: round; stroke-linecap: round; stroke-width: 5; fill: none; stroke: rgba(255, 0, 0, 0);"/>
  <path id="path1748" style="stroke-linejoin: round; stroke-linecap: round; stroke-width: 12.5; fill: none; stroke: rgba(255, 255, 255, 0);" d="M 23.237 -0.04 L 23.237 24.471"/>
  <path id="path696" d="M 30.987 4.81 L 30.987 12.633 C 37.048 15.84 40.493 22.583 39.285 29.527 C 37.935 37.289 31.222 42.862 23.343 42.791 C 15.464 42.721 8.85 36.985 7.639 29.199 C 6.57 22.32 10.015 15.69 15.997 12.543 L 15.997 4.84 C 8.077 7.556 2.39 14.243 0.769 22.09 C 0.222 24.737 0.155 27.502 0.59 30.299 C 2.33 41.489 11.96 49.857 23.284 49.959 C 34.607 50.061 44.393 41.873 46.334 30.716 C 48.274 19.559 41.798 8.569 31.105 4.84 C 31.065 4.826 31.027 4.823 30.986 4.81 Z" style="fill-rule: evenodd; fill: rgb(214, 96, 0);"/>
  <path id="path701" style="stroke-linejoin: round; stroke-linecap: round; stroke-width: 7.9794; fill: none; stroke: rgb(214, 96, 0);" d="M 23.237 3.96 L 23.237 28.471"/>
</svg>